<mxfile host="app.diagrams.net" modified="2020-04-24T07:21:41.233Z" agent="5.0 (Macintosh; Intel Mac OS X 10_15_4) AppleWebKit/537.36 (KHTML, like Gecko) Chrome/80.0.3987.163 Safari/537.36" etag="LSjM-jyCVH33Y-LgJdu1" version="13.0.1" type="github" pages="5">
  <diagram id="W97piWZcYH7f8uUSR46T" name="堡垒机服务">
    <mxGraphModel dx="1186" dy="715" grid="1" gridSize="10" guides="1" tooltips="1" connect="1" arrows="1" fold="1" page="1" pageScale="1" pageWidth="827" pageHeight="1169" math="0" shadow="0">
      <root>
        <mxCell id="h8PV4E_Y3il_wEPAyAsl-0" />
        <mxCell id="h8PV4E_Y3il_wEPAyAsl-1" parent="h8PV4E_Y3il_wEPAyAsl-0" />
        <mxCell id="koYSG3EhefwY1sI4pIER-10" style="edgeStyle=orthogonalEdgeStyle;rounded=1;orthogonalLoop=1;jettySize=auto;html=1;strokeWidth=1;fontSize=14;fillColor=#ffe6cc;strokeColor=#d79b00;" parent="h8PV4E_Y3il_wEPAyAsl-1" source="koYSG3EhefwY1sI4pIER-1" target="koYSG3EhefwY1sI4pIER-11" edge="1">
          <mxGeometry relative="1" as="geometry" />
        </mxCell>
        <mxCell id="koYSG3EhefwY1sI4pIER-1" value="管理员" style="shape=umlActor;verticalLabelPosition=bottom;labelBackgroundColor=#ffffff;verticalAlign=top;html=1;outlineConnect=0;fontSize=14;fillColor=#ffe6cc;strokeColor=#d79b00;" parent="h8PV4E_Y3il_wEPAyAsl-1" vertex="1">
          <mxGeometry x="316" y="40" width="30" height="60" as="geometry" />
        </mxCell>
        <mxCell id="koYSG3EhefwY1sI4pIER-15" style="edgeStyle=orthogonalEdgeStyle;rounded=1;orthogonalLoop=1;jettySize=auto;html=1;strokeWidth=1;fontSize=14;" parent="h8PV4E_Y3il_wEPAyAsl-1" source="koYSG3EhefwY1sI4pIER-11" target="koYSG3EhefwY1sI4pIER-14" edge="1">
          <mxGeometry relative="1" as="geometry">
            <mxPoint x="331" y="380" as="sourcePoint" />
            <Array as="points">
              <mxPoint x="331" y="280" />
              <mxPoint x="259" y="280" />
            </Array>
          </mxGeometry>
        </mxCell>
        <mxCell id="koYSG3EhefwY1sI4pIER-16" value="录入资源" style="text;html=1;resizable=0;points=[];align=center;verticalAlign=middle;labelBackgroundColor=#ffffff;fontSize=14;" parent="koYSG3EhefwY1sI4pIER-15" vertex="1" connectable="0">
          <mxGeometry y="6" relative="1" as="geometry">
            <mxPoint x="41.5" y="-16" as="offset" />
          </mxGeometry>
        </mxCell>
        <mxCell id="koYSG3EhefwY1sI4pIER-18" style="edgeStyle=orthogonalEdgeStyle;rounded=1;orthogonalLoop=1;jettySize=auto;html=1;strokeWidth=1;fontSize=14;fillColor=#ffe6cc;strokeColor=#d79b00;" parent="h8PV4E_Y3il_wEPAyAsl-1" source="koYSG3EhefwY1sI4pIER-8" target="koYSG3EhefwY1sI4pIER-22" edge="1">
          <mxGeometry relative="1" as="geometry">
            <mxPoint x="572" y="240" as="targetPoint" />
          </mxGeometry>
        </mxCell>
        <mxCell id="koYSG3EhefwY1sI4pIER-8" value="运维用户" style="shape=umlActor;verticalLabelPosition=bottom;labelBackgroundColor=#ffffff;verticalAlign=top;html=1;outlineConnect=0;fontSize=14;fillColor=#ffe6cc;strokeColor=#d79b00;" parent="h8PV4E_Y3il_wEPAyAsl-1" vertex="1">
          <mxGeometry x="602" y="40" width="30" height="60" as="geometry" />
        </mxCell>
        <mxCell id="koYSG3EhefwY1sI4pIER-12" style="edgeStyle=orthogonalEdgeStyle;rounded=1;orthogonalLoop=1;jettySize=auto;html=1;strokeWidth=1;fontSize=14;" parent="h8PV4E_Y3il_wEPAyAsl-1" source="koYSG3EhefwY1sI4pIER-11" target="koYSG3EhefwY1sI4pIER-21" edge="1">
          <mxGeometry relative="1" as="geometry">
            <mxPoint x="331" y="320" as="targetPoint" />
            <Array as="points">
              <mxPoint x="331" y="280" />
              <mxPoint x="389" y="280" />
              <mxPoint x="389" y="327" />
            </Array>
          </mxGeometry>
        </mxCell>
        <mxCell id="koYSG3EhefwY1sI4pIER-11" value="" style="points=[];aspect=fixed;html=1;align=center;shadow=0;dashed=0;image;image=img/lib/allied_telesis/computer_and_terminals/Personal_Computer.svg;fontSize=14;" parent="h8PV4E_Y3il_wEPAyAsl-1" vertex="1">
          <mxGeometry x="308" y="190" width="45.6" height="61.800000000000004" as="geometry" />
        </mxCell>
        <mxCell id="koYSG3EhefwY1sI4pIER-14" value="待运维的资源" style="points=[];aspect=fixed;html=1;align=center;shadow=0;dashed=0;image;image=img/lib/allied_telesis/storage/Datacenter_Server_Half_Rack_ToR.svg;fontSize=14;" parent="h8PV4E_Y3il_wEPAyAsl-1" vertex="1">
          <mxGeometry x="220" y="320" width="88.2" height="114.6" as="geometry" />
        </mxCell>
        <mxCell id="koYSG3EhefwY1sI4pIER-21" value="堡垒机系统" style="points=[];aspect=fixed;html=1;align=center;shadow=0;dashed=0;image;image=img/lib/allied_telesis/computer_and_terminals/Server_Desktop.svg;fontSize=14;" parent="h8PV4E_Y3il_wEPAyAsl-1" vertex="1">
          <mxGeometry x="369" y="320" width="42.599999999999994" height="54" as="geometry" />
        </mxCell>
        <mxCell id="koYSG3EhefwY1sI4pIER-24" style="edgeStyle=orthogonalEdgeStyle;rounded=1;orthogonalLoop=1;jettySize=auto;html=1;strokeWidth=1;fontSize=14;" parent="h8PV4E_Y3il_wEPAyAsl-1" source="koYSG3EhefwY1sI4pIER-22" target="koYSG3EhefwY1sI4pIER-23" edge="1">
          <mxGeometry relative="1" as="geometry" />
        </mxCell>
        <mxCell id="koYSG3EhefwY1sI4pIER-25" value="访问堡垒机" style="text;html=1;resizable=0;points=[];align=center;verticalAlign=middle;labelBackgroundColor=#ffffff;fontSize=14;" parent="koYSG3EhefwY1sI4pIER-24" vertex="1" connectable="0">
          <mxGeometry x="-0.173" y="1" relative="1" as="geometry">
            <mxPoint as="offset" />
          </mxGeometry>
        </mxCell>
        <mxCell id="koYSG3EhefwY1sI4pIER-22" value="" style="points=[];aspect=fixed;html=1;align=center;shadow=0;dashed=0;image;image=img/lib/allied_telesis/computer_and_terminals/Personal_Computer.svg;fontSize=14;" parent="h8PV4E_Y3il_wEPAyAsl-1" vertex="1">
          <mxGeometry x="594" y="200" width="45.6" height="61.800000000000004" as="geometry" />
        </mxCell>
        <mxCell id="koYSG3EhefwY1sI4pIER-28" style="edgeStyle=orthogonalEdgeStyle;rounded=1;orthogonalLoop=1;jettySize=auto;html=1;strokeWidth=1;fontSize=14;" parent="h8PV4E_Y3il_wEPAyAsl-1" source="koYSG3EhefwY1sI4pIER-23" target="koYSG3EhefwY1sI4pIER-27" edge="1">
          <mxGeometry relative="1" as="geometry" />
        </mxCell>
        <mxCell id="koYSG3EhefwY1sI4pIER-29" value="代理资源" style="text;html=1;resizable=0;points=[];align=center;verticalAlign=middle;labelBackgroundColor=#ffffff;fontSize=14;" parent="koYSG3EhefwY1sI4pIER-28" vertex="1" connectable="0">
          <mxGeometry x="0.0263" y="1" relative="1" as="geometry">
            <mxPoint x="-1" y="17" as="offset" />
          </mxGeometry>
        </mxCell>
        <mxCell id="koYSG3EhefwY1sI4pIER-23" value="堡垒机系统" style="points=[];aspect=fixed;html=1;align=center;shadow=0;dashed=0;image;image=img/lib/allied_telesis/computer_and_terminals/Server_Desktop.svg;fontSize=14;" parent="h8PV4E_Y3il_wEPAyAsl-1" vertex="1">
          <mxGeometry x="595.5" y="330" width="42.599999999999994" height="54" as="geometry" />
        </mxCell>
        <mxCell id="koYSG3EhefwY1sI4pIER-27" value="待运维的资源" style="points=[];aspect=fixed;html=1;align=center;shadow=0;dashed=0;image;image=img/lib/allied_telesis/storage/Datacenter_Server_Half_Rack_ToR.svg;fontSize=14;" parent="h8PV4E_Y3il_wEPAyAsl-1" vertex="1">
          <mxGeometry x="573" y="480" width="88.2" height="114.6" as="geometry" />
        </mxCell>
      </root>
    </mxGraphModel>
  </diagram>
  <diagram id="wEFyXZNCoF4Mnt_2w7RU" name="堡垒机后台架构">
    <mxGraphModel dx="2013" dy="715" grid="1" gridSize="10" guides="1" tooltips="1" connect="1" arrows="1" fold="1" page="1" pageScale="1" pageWidth="827" pageHeight="1169" math="0" shadow="0">
      <root>
        <mxCell id="0" />
        <mxCell id="1" parent="0" />
        <mxCell id="sBomJymC88gRaxNCGg8e-60" value="" style="group" parent="1" vertex="1" connectable="0">
          <mxGeometry x="710" y="320" width="140" height="280" as="geometry" />
        </mxCell>
        <mxCell id="sBomJymC88gRaxNCGg8e-58" value="" style="rounded=0;whiteSpace=wrap;html=1;dashed=1;" parent="sBomJymC88gRaxNCGg8e-60" vertex="1">
          <mxGeometry width="140" height="280" as="geometry" />
        </mxCell>
        <mxCell id="sBomJymC88gRaxNCGg8e-59" value="构建服务" style="text;html=1;resizable=0;points=[];autosize=1;align=left;verticalAlign=top;spacingTop=-4;" parent="sBomJymC88gRaxNCGg8e-60" vertex="1">
          <mxGeometry x="10" y="8.88888888888889" width="60" height="20" as="geometry" />
        </mxCell>
        <mxCell id="sBomJymC88gRaxNCGg8e-57" value="" style="group;dashed=1;opacity=0;" parent="1" vertex="1" connectable="0">
          <mxGeometry x="-20" y="390" width="160" height="160" as="geometry" />
        </mxCell>
        <mxCell id="sBomJymC88gRaxNCGg8e-55" value="" style="rounded=0;whiteSpace=wrap;html=1;dashed=1;" parent="sBomJymC88gRaxNCGg8e-57" vertex="1">
          <mxGeometry width="160" height="160" as="geometry" />
        </mxCell>
        <mxCell id="sBomJymC88gRaxNCGg8e-56" value="gRPC 服务" style="text;html=1;resizable=0;points=[];autosize=1;align=left;verticalAlign=top;spacingTop=-4;" parent="sBomJymC88gRaxNCGg8e-57" vertex="1">
          <mxGeometry x="7.619047619047619" y="5.517241379310344" width="70" height="20" as="geometry" />
        </mxCell>
        <mxCell id="sBomJymC88gRaxNCGg8e-15" value="pas-grpc-api" style="rounded=1;whiteSpace=wrap;html=1;fillColor=#e1d5e7;strokeColor=#9673a6;" parent="sBomJymC88gRaxNCGg8e-57" vertex="1">
          <mxGeometry x="20" y="68.96551724137932" width="120" height="22.068965517241377" as="geometry" />
        </mxCell>
        <mxCell id="sBomJymC88gRaxNCGg8e-31" value="" style="group;opacity=0;fillColor=#bac8d3;strokeColor=#23445d;" parent="1" vertex="1" connectable="0">
          <mxGeometry x="170" y="720" width="500" height="160" as="geometry" />
        </mxCell>
        <mxCell id="sBomJymC88gRaxNCGg8e-29" value="" style="rounded=0;whiteSpace=wrap;html=1;dashed=1;" parent="sBomJymC88gRaxNCGg8e-31" vertex="1">
          <mxGeometry width="500" height="160" as="geometry" />
        </mxCell>
        <mxCell id="sBomJymC88gRaxNCGg8e-30" value="存储服务" style="text;html=1;resizable=0;points=[];autosize=1;align=left;verticalAlign=top;spacingTop=-4;" parent="sBomJymC88gRaxNCGg8e-31" vertex="1">
          <mxGeometry x="9.615384615384615" y="10" width="60" height="20" as="geometry" />
        </mxCell>
        <mxCell id="sBomJymC88gRaxNCGg8e-33" value="MySQL" style="shape=cylinder;whiteSpace=wrap;html=1;boundedLbl=1;backgroundOutline=1;fillColor=#bac8d3;strokeColor=#23445d;" parent="sBomJymC88gRaxNCGg8e-31" vertex="1">
          <mxGeometry x="60.19230769230769" y="40" width="57.69230769230769" height="80" as="geometry" />
        </mxCell>
        <mxCell id="sBomJymC88gRaxNCGg8e-46" value="Redis" style="shape=cylinder;whiteSpace=wrap;html=1;boundedLbl=1;backgroundOutline=1;fillColor=#bac8d3;strokeColor=#23445d;" parent="sBomJymC88gRaxNCGg8e-31" vertex="1">
          <mxGeometry x="214.42307692307693" y="40" width="57.69230769230769" height="80" as="geometry" />
        </mxCell>
        <mxCell id="sBomJymC88gRaxNCGg8e-47" value="文件系统" style="shape=internalStorage;whiteSpace=wrap;html=1;backgroundOutline=1;fillColor=#bac8d3;strokeColor=#23445d;" parent="sBomJymC88gRaxNCGg8e-31" vertex="1">
          <mxGeometry x="365.3846153846154" y="40" width="76.92307692307692" height="80" as="geometry" />
        </mxCell>
        <mxCell id="sBomJymC88gRaxNCGg8e-26" value="" style="group;" parent="1" vertex="1" connectable="0">
          <mxGeometry x="160" y="280" width="520" height="380" as="geometry" />
        </mxCell>
        <mxCell id="sBomJymC88gRaxNCGg8e-24" value="" style="rounded=0;whiteSpace=wrap;html=1;dashed=1;" parent="sBomJymC88gRaxNCGg8e-26" vertex="1">
          <mxGeometry width="520" height="380" as="geometry" />
        </mxCell>
        <mxCell id="sBomJymC88gRaxNCGg8e-25" value="核心业务服务" style="text;html=1;resizable=0;points=[];autosize=1;align=left;verticalAlign=top;spacingTop=-4;" parent="sBomJymC88gRaxNCGg8e-26" vertex="1">
          <mxGeometry x="10" y="11.176470588235293" width="90" height="20" as="geometry" />
        </mxCell>
        <mxCell id="sBomJymC88gRaxNCGg8e-14" value="pas-psm-script" style="rounded=1;whiteSpace=wrap;html=1;fillColor=#d5e8d4;strokeColor=#82b366;" parent="sBomJymC88gRaxNCGg8e-26" vertex="1">
          <mxGeometry x="120" y="294" width="120" height="60" as="geometry" />
        </mxCell>
        <mxCell id="sBomJymC88gRaxNCGg8e-12" value="pas-psm-guacd" style="rounded=1;whiteSpace=wrap;html=1;fillColor=#d5e8d4;strokeColor=#82b366;" parent="sBomJymC88gRaxNCGg8e-26" vertex="1">
          <mxGeometry x="270" y="294" width="120" height="60" as="geometry" />
        </mxCell>
        <mxCell id="sBomJymC88gRaxNCGg8e-51" value="" style="shape=flexArrow;endArrow=classic;html=1;strokeColor=#9673a6;strokeWidth=2;width=8;endSize=4.93;fillColor=#e1d5e7;" parent="sBomJymC88gRaxNCGg8e-26" edge="1">
          <mxGeometry width="50" height="50" relative="1" as="geometry">
            <mxPoint x="-30" y="190" as="sourcePoint" />
            <mxPoint x="30" y="190" as="targetPoint" />
            <Array as="points">
              <mxPoint x="10" y="190" />
            </Array>
          </mxGeometry>
        </mxCell>
        <mxCell id="sBomJymC88gRaxNCGg8e-52" value="" style="shape=flexArrow;endArrow=classic;html=1;strokeColor=#d79b00;strokeWidth=2;width=8;endSize=4.93;fillColor=#ffe6cc;" parent="sBomJymC88gRaxNCGg8e-26" edge="1">
          <mxGeometry width="50" height="50" relative="1" as="geometry">
            <mxPoint x="550" y="180" as="sourcePoint" />
            <mxPoint x="490" y="180" as="targetPoint" />
            <Array as="points">
              <mxPoint x="450" y="180" />
            </Array>
          </mxGeometry>
        </mxCell>
        <mxCell id="gRf-F2dtELhWwl-6Dd0U-14" style="edgeStyle=orthogonalEdgeStyle;rounded=1;orthogonalLoop=1;jettySize=auto;html=1;strokeWidth=3;fontSize=14;fillColor=#e1d5e7;strokeColor=#9673a6;" parent="sBomJymC88gRaxNCGg8e-26" source="gRf-F2dtELhWwl-6Dd0U-11" target="sBomJymC88gRaxNCGg8e-14" edge="1">
          <mxGeometry relative="1" as="geometry" />
        </mxCell>
        <mxCell id="gRf-F2dtELhWwl-6Dd0U-11" value="&lt;font style=&quot;font-size: 12px&quot;&gt;pas-psm-task&lt;/font&gt;" style="rounded=1;whiteSpace=wrap;html=1;fontSize=14;fillColor=#f8cecc;strokeColor=#b85450;" parent="sBomJymC88gRaxNCGg8e-26" vertex="1">
          <mxGeometry x="200" y="130" width="120" height="60" as="geometry" />
        </mxCell>
        <mxCell id="sBomJymC88gRaxNCGg8e-7" value="" style="edgeStyle=orthogonalEdgeStyle;orthogonalLoop=1;jettySize=auto;html=1;strokeColor=#FF6666;strokeWidth=5;curved=1;" parent="1" source="sBomJymC88gRaxNCGg8e-1" target="sBomJymC88gRaxNCGg8e-4" edge="1">
          <mxGeometry relative="1" as="geometry" />
        </mxCell>
        <mxCell id="sBomJymC88gRaxNCGg8e-1" value="pas-psm-ui-portal&lt;br&gt;H5登录 80&amp;amp;443" style="rounded=1;whiteSpace=wrap;html=1;fillColor=#fff2cc;strokeColor=#d6b656;" parent="1" vertex="1">
          <mxGeometry x="360" y="70" width="120" height="60" as="geometry" />
        </mxCell>
        <mxCell id="sBomJymC88gRaxNCGg8e-8" style="edgeStyle=orthogonalEdgeStyle;orthogonalLoop=1;jettySize=auto;html=1;entryX=0.75;entryY=0;entryDx=0;entryDy=0;strokeColor=#FF6666;strokeWidth=5;rounded=1;" parent="1" source="sBomJymC88gRaxNCGg8e-2" target="sBomJymC88gRaxNCGg8e-4" edge="1">
          <mxGeometry relative="1" as="geometry" />
        </mxCell>
        <mxCell id="sBomJymC88gRaxNCGg8e-2" value="SSH/SFTP/FTP/DB客户端" style="rounded=1;whiteSpace=wrap;html=1;fillColor=#fff2cc;strokeColor=#d6b656;" parent="1" vertex="1">
          <mxGeometry x="520" y="70" width="160" height="60" as="geometry" />
        </mxCell>
        <mxCell id="sBomJymC88gRaxNCGg8e-6" style="edgeStyle=orthogonalEdgeStyle;orthogonalLoop=1;jettySize=auto;html=1;strokeColor=#FF6666;strokeWidth=5;entryX=0.25;entryY=0;entryDx=0;entryDy=0;rounded=1;" parent="1" source="sBomJymC88gRaxNCGg8e-3" target="sBomJymC88gRaxNCGg8e-4" edge="1">
          <mxGeometry relative="1" as="geometry" />
        </mxCell>
        <mxCell id="sBomJymC88gRaxNCGg8e-3" value="pas-psm-ui-portal&lt;br&gt;管理界面 80 &amp;amp; 443" style="rounded=1;whiteSpace=wrap;html=1;fillColor=#fff2cc;strokeColor=#d6b656;" parent="1" vertex="1">
          <mxGeometry x="160" y="70" width="120" height="60" as="geometry" />
        </mxCell>
        <mxCell id="sBomJymC88gRaxNCGg8e-27" style="edgeStyle=orthogonalEdgeStyle;orthogonalLoop=1;jettySize=auto;html=1;strokeColor=#00CC66;strokeWidth=3;rounded=1;" parent="1" source="sBomJymC88gRaxNCGg8e-4" target="sBomJymC88gRaxNCGg8e-10" edge="1">
          <mxGeometry relative="1" as="geometry" />
        </mxCell>
        <mxCell id="sBomJymC88gRaxNCGg8e-28" style="edgeStyle=orthogonalEdgeStyle;orthogonalLoop=1;jettySize=auto;html=1;strokeColor=#00CC66;strokeWidth=3;rounded=1;" parent="1" source="sBomJymC88gRaxNCGg8e-4" target="sBomJymC88gRaxNCGg8e-11" edge="1">
          <mxGeometry relative="1" as="geometry" />
        </mxCell>
        <mxCell id="gRf-F2dtELhWwl-6Dd0U-13" style="edgeStyle=orthogonalEdgeStyle;rounded=1;orthogonalLoop=1;jettySize=auto;html=1;strokeWidth=3;fontSize=14;fillColor=#e1d5e7;strokeColor=#9673a6;" parent="1" source="sBomJymC88gRaxNCGg8e-10" target="gRf-F2dtELhWwl-6Dd0U-11" edge="1">
          <mxGeometry relative="1" as="geometry">
            <Array as="points">
              <mxPoint x="420" y="350" />
            </Array>
          </mxGeometry>
        </mxCell>
        <mxCell id="sBomJymC88gRaxNCGg8e-10" value="pas-psm-web-portal" style="rounded=1;whiteSpace=wrap;html=1;fillColor=#f8cecc;strokeColor=#b85450;" parent="1" vertex="1">
          <mxGeometry x="200" y="320" width="120" height="60" as="geometry" />
        </mxCell>
        <mxCell id="sBomJymC88gRaxNCGg8e-17" style="edgeStyle=orthogonalEdgeStyle;orthogonalLoop=1;jettySize=auto;html=1;strokeColor=#82b366;strokeWidth=3;fillColor=#d5e8d4;rounded=1;" parent="1" source="sBomJymC88gRaxNCGg8e-11" target="sBomJymC88gRaxNCGg8e-12" edge="1">
          <mxGeometry relative="1" as="geometry" />
        </mxCell>
        <mxCell id="sBomJymC88gRaxNCGg8e-11" value="pas-psm-proxy" style="rounded=1;whiteSpace=wrap;html=1;fillColor=#f8cecc;strokeColor=#b85450;" parent="1" vertex="1">
          <mxGeometry x="520" y="320" width="120" height="60" as="geometry" />
        </mxCell>
        <mxCell id="sBomJymC88gRaxNCGg8e-18" style="edgeStyle=orthogonalEdgeStyle;orthogonalLoop=1;jettySize=auto;html=1;strokeColor=#9673a6;strokeWidth=3;fillColor=#e1d5e7;rounded=1;" parent="1" source="sBomJymC88gRaxNCGg8e-10" target="sBomJymC88gRaxNCGg8e-14" edge="1">
          <mxGeometry relative="1" as="geometry">
            <mxPoint x="590" y="390" as="sourcePoint" />
            <mxPoint x="590" y="530" as="targetPoint" />
            <Array as="points">
              <mxPoint x="260" y="520" />
              <mxPoint x="340" y="520" />
            </Array>
          </mxGeometry>
        </mxCell>
        <mxCell id="sBomJymC88gRaxNCGg8e-21" value="pas-oem" style="rounded=1;whiteSpace=wrap;html=1;fillColor=#ffe6cc;strokeColor=#d79b00;" parent="1" vertex="1">
          <mxGeometry x="720" y="360" width="120" height="40" as="geometry" />
        </mxCell>
        <mxCell id="sBomJymC88gRaxNCGg8e-22" value="pas-cluster-deploy" style="rounded=1;whiteSpace=wrap;html=1;fillColor=#ffe6cc;strokeColor=#d79b00;" parent="1" vertex="1">
          <mxGeometry x="720" y="520" width="120" height="40" as="geometry" />
        </mxCell>
        <mxCell id="sBomJymC88gRaxNCGg8e-23" value="pas-deploy" style="rounded=1;whiteSpace=wrap;html=1;fillColor=#ffe6cc;strokeColor=#d79b00;" parent="1" vertex="1">
          <mxGeometry x="720" y="440" width="120" height="40" as="geometry" />
        </mxCell>
        <mxCell id="sBomJymC88gRaxNCGg8e-50" value="" style="edgeStyle=orthogonalEdgeStyle;orthogonalLoop=1;jettySize=auto;html=1;strokeColor=#82b366;strokeWidth=5;fillColor=#d5e8d4;rounded=1;" parent="1" source="sBomJymC88gRaxNCGg8e-24" target="sBomJymC88gRaxNCGg8e-29" edge="1">
          <mxGeometry relative="1" as="geometry" />
        </mxCell>
        <mxCell id="sBomJymC88gRaxNCGg8e-62" value="" style="group" parent="1" vertex="1" connectable="0">
          <mxGeometry x="160" y="200" width="520" height="40" as="geometry" />
        </mxCell>
        <mxCell id="sBomJymC88gRaxNCGg8e-4" value="Nginx" style="rounded=1;whiteSpace=wrap;html=1;fillColor=#dae8fc;strokeColor=#6c8ebf;" parent="sBomJymC88gRaxNCGg8e-62" vertex="1">
          <mxGeometry width="520" height="40" as="geometry" />
        </mxCell>
        <mxCell id="sBomJymC88gRaxNCGg8e-61" value="代理服务" style="text;html=1;resizable=0;points=[];autosize=1;align=left;verticalAlign=top;spacingTop=-4;" parent="sBomJymC88gRaxNCGg8e-62" vertex="1">
          <mxGeometry width="60" height="20" as="geometry" />
        </mxCell>
        <mxCell id="gRf-F2dtELhWwl-6Dd0U-1" value="代理服务：&lt;br style=&quot;font-size: 14px;&quot;&gt;&amp;nbsp; &amp;nbsp; 1. 转发客户端或 web 页面请求至核心业务相应服务&lt;br style=&quot;font-size: 14px;&quot;&gt;&amp;nbsp; &amp;nbsp; 2. 80 端口到 443 端口的安全转换&lt;br style=&quot;font-size: 14px;&quot;&gt;&amp;nbsp; &amp;nbsp; 3. 负载均衡&lt;br style=&quot;font-size: 14px;&quot;&gt;&amp;nbsp; &amp;nbsp; 4. SSL 解密" style="rounded=0;whiteSpace=wrap;html=1;align=left;fontSize=14;" parent="1" vertex="1">
          <mxGeometry x="880" y="80" width="360" height="90" as="geometry" />
        </mxCell>
        <mxCell id="gRf-F2dtELhWwl-6Dd0U-2" value="pas-psm-web-portal:&lt;br style=&quot;font-size: 14px;&quot;&gt;&amp;nbsp; &amp;nbsp; 1. Web 界面后台管理系统&lt;br style=&quot;font-size: 14px;&quot;&gt;&amp;nbsp; &amp;nbsp; 2. 管理用户、权限、资源、访问策略和系统等功能&lt;br style=&quot;font-size: 14px;&quot;&gt;&amp;nbsp; &amp;nbsp; 3. 管理用户会话状态，实现安全策略，阻断用户运维" style="rounded=0;whiteSpace=wrap;html=1;align=left;fontSize=14;" parent="1" vertex="1">
          <mxGeometry x="880" y="180" width="360" height="90" as="geometry" />
        </mxCell>
        <mxCell id="gRf-F2dtELhWwl-6Dd0U-3" value="pas-psm-proxy:&lt;br style=&quot;font-size: 14px;&quot;&gt;&amp;nbsp; &amp;nbsp; 1. 运维代理系统&lt;br style=&quot;font-size: 14px;&quot;&gt;&amp;nbsp; &amp;nbsp; 2. 代理用户访问资源（如主机），记录并审计所有操作&lt;br style=&quot;font-size: 14px;&quot;&gt;&amp;nbsp; &amp;nbsp; 3. 提供多人同时监控运维资源，协同操作" style="rounded=0;whiteSpace=wrap;html=1;align=left;fontSize=14;" parent="1" vertex="1">
          <mxGeometry x="880" y="355" width="360" height="90" as="geometry" />
        </mxCell>
        <mxCell id="gRf-F2dtELhWwl-6Dd0U-4" value="pas-grpc-api:&lt;br style=&quot;font-size: 14px;&quot;&gt;&amp;nbsp; &amp;nbsp; 1. gRPC 服务接口定义&lt;br style=&quot;font-size: 14px;&quot;&gt;&amp;nbsp; &amp;nbsp; 2. web 和代理系统调用的接口定义&lt;br style=&quot;font-size: 14px;&quot;&gt;&amp;nbsp; &amp;nbsp; 3. gRPC 服务调用规范" style="rounded=0;whiteSpace=wrap;html=1;align=left;fontSize=14;" parent="1" vertex="1">
          <mxGeometry x="880" y="600" width="360" height="74" as="geometry" />
        </mxCell>
        <mxCell id="gRf-F2dtELhWwl-6Dd0U-6" value="" style="endArrow=classic;startArrow=classic;html=1;fillColor=#e1d5e7;strokeColor=#9673a6;strokeWidth=3;" parent="1" source="sBomJymC88gRaxNCGg8e-10" target="sBomJymC88gRaxNCGg8e-11" edge="1">
          <mxGeometry width="50" height="50" relative="1" as="geometry">
            <mxPoint x="10" y="950" as="sourcePoint" />
            <mxPoint x="60" y="900" as="targetPoint" />
          </mxGeometry>
        </mxCell>
        <mxCell id="gRf-F2dtELhWwl-6Dd0U-7" value="构建服务：&lt;br style=&quot;font-size: 14px;&quot;&gt;&amp;nbsp; &amp;nbsp; 1. 支撑堡垒机的系统环境&lt;br style=&quot;font-size: 14px;&quot;&gt;&amp;nbsp; &amp;nbsp; 2. 完成客户 OEM 定制需求&lt;br style=&quot;font-size: 14px;&quot;&gt;&amp;nbsp; &amp;nbsp; 3. 提供不同客户环境的镜像安装包&lt;br style=&quot;font-size: 14px;&quot;&gt;&amp;nbsp; &amp;nbsp; 4. 提供集群版构建方式" style="rounded=0;whiteSpace=wrap;html=1;align=left;fontSize=14;" parent="1" vertex="1">
          <mxGeometry x="880" y="700" width="360" height="80" as="geometry" />
        </mxCell>
        <mxCell id="gRf-F2dtELhWwl-6Dd0U-8" value="存储服务：&lt;br style=&quot;font-size: 14px;&quot;&gt;&amp;nbsp; &amp;nbsp; 1. 存储业务系统持久化存储&lt;br style=&quot;font-size: 14px;&quot;&gt;&amp;nbsp; &amp;nbsp; 2. 高效数据缓存&lt;br style=&quot;font-size: 14px;&quot;&gt;&amp;nbsp; &amp;nbsp; 3. 文件存储系统" style="rounded=0;whiteSpace=wrap;html=1;align=left;fontSize=14;" parent="1" vertex="1">
          <mxGeometry x="880" y="800" width="360" height="80" as="geometry" />
        </mxCell>
        <mxCell id="gRf-F2dtELhWwl-6Dd0U-9" value="pas-psm-script:&lt;br style=&quot;font-size: 14px;&quot;&gt;&amp;nbsp; &amp;nbsp; 1. 提供运维其他资源的能力，如主机，数据库等&lt;br style=&quot;font-size: 14px;&quot;&gt;&amp;nbsp; &amp;nbsp; 2. 在业务系统的调度下，执行运维操作&lt;br style=&quot;font-size: 14px;&quot;&gt;&amp;nbsp; &amp;nbsp; 3. 提供改密等能力" style="rounded=0;whiteSpace=wrap;html=1;align=left;fontSize=14;" parent="1" vertex="1">
          <mxGeometry x="880" y="460" width="360" height="70" as="geometry" />
        </mxCell>
        <mxCell id="gRf-F2dtELhWwl-6Dd0U-10" value="pas-psm-guacd:&lt;br style=&quot;font-size: 14px;&quot;&gt;&amp;nbsp; &amp;nbsp; 1. 高性能远程桌面控制" style="rounded=0;whiteSpace=wrap;html=1;align=left;fontSize=14;" parent="1" vertex="1">
          <mxGeometry x="880" y="544" width="360" height="40" as="geometry" />
        </mxCell>
        <mxCell id="gRf-F2dtELhWwl-6Dd0U-15" value="pas-psm-task:&lt;br style=&quot;font-size: 14px&quot;&gt;&amp;nbsp; &amp;nbsp; 1. 提供定时任务执行能力&lt;br style=&quot;font-size: 14px&quot;&gt;&amp;nbsp; &amp;nbsp; 2. 后台执行 web 操作，与业务系统拆分" style="rounded=0;whiteSpace=wrap;html=1;align=left;fontSize=14;" parent="1" vertex="1">
          <mxGeometry x="880" y="280" width="360" height="60" as="geometry" />
        </mxCell>
      </root>
    </mxGraphModel>
  </diagram>
  <diagram id="mz1o88qa2TXv8gYfRGYP" name="H5 用户运维">
    <mxGraphModel dx="1186" dy="715" grid="1" gridSize="10" guides="1" tooltips="1" connect="1" arrows="1" fold="1" page="1" pageScale="1" pageWidth="827" pageHeight="1169" math="0" shadow="0">
      <root>
        <mxCell id="HXngfqCA3_Blp8MBTVv8-0" />
        <mxCell id="HXngfqCA3_Blp8MBTVv8-1" parent="HXngfqCA3_Blp8MBTVv8-0" />
        <mxCell id="1n2LrM6pAfByoy7Aodjy-3" style="edgeStyle=orthogonalEdgeStyle;rounded=1;orthogonalLoop=1;jettySize=auto;html=1;entryX=0.25;entryY=0;entryDx=0;entryDy=0;strokeWidth=1;fontSize=14;" parent="HXngfqCA3_Blp8MBTVv8-1" source="-X5C19tB0Q1iZu9xh6cp-0" target="1n2LrM6pAfByoy7Aodjy-1" edge="1">
          <mxGeometry relative="1" as="geometry" />
        </mxCell>
        <mxCell id="1n2LrM6pAfByoy7Aodjy-4" value="1. 访问堡垒机管理系统，建立登录会话" style="text;html=1;resizable=0;points=[];align=center;verticalAlign=middle;labelBackgroundColor=#ffffff;fontSize=14;" parent="1n2LrM6pAfByoy7Aodjy-3" vertex="1" connectable="0">
          <mxGeometry x="-0.0222" y="1" relative="1" as="geometry">
            <mxPoint as="offset" />
          </mxGeometry>
        </mxCell>
        <mxCell id="-X5C19tB0Q1iZu9xh6cp-0" value="pas-psm-ui-portal&lt;br&gt;管理界面 80 &amp;amp; 443" style="rounded=1;whiteSpace=wrap;html=1;fillColor=#fff2cc;strokeColor=#d6b656;" parent="HXngfqCA3_Blp8MBTVv8-1" vertex="1">
          <mxGeometry x="200" y="80" width="120" height="60" as="geometry" />
        </mxCell>
        <mxCell id="TwIbi9MzcWZOTdJuihYT-6" value="7. 建立运维会话" style="edgeStyle=orthogonalEdgeStyle;rounded=1;orthogonalLoop=1;jettySize=auto;html=1;entryX=0.75;entryY=0;entryDx=0;entryDy=0;strokeWidth=1;fontSize=14;" parent="HXngfqCA3_Blp8MBTVv8-1" source="KNSno5Ze39uRXBVzfoKS-0" target="1n2LrM6pAfByoy7Aodjy-1" edge="1">
          <mxGeometry relative="1" as="geometry" />
        </mxCell>
        <mxCell id="KNSno5Ze39uRXBVzfoKS-0" value="pas-psm-ui-portal&lt;br&gt;H5登录 80&amp;amp;443" style="rounded=1;whiteSpace=wrap;html=1;fillColor=#fff2cc;strokeColor=#d6b656;" parent="HXngfqCA3_Blp8MBTVv8-1" vertex="1">
          <mxGeometry x="500" y="70" width="120" height="60" as="geometry" />
        </mxCell>
        <mxCell id="1n2LrM6pAfByoy7Aodjy-0" value="" style="group" parent="HXngfqCA3_Blp8MBTVv8-1" vertex="1" connectable="0">
          <mxGeometry x="160" y="200" width="520" height="40" as="geometry" />
        </mxCell>
        <mxCell id="1n2LrM6pAfByoy7Aodjy-1" value="Nginx" style="rounded=1;whiteSpace=wrap;html=1;fillColor=#dae8fc;strokeColor=#6c8ebf;" parent="1n2LrM6pAfByoy7Aodjy-0" vertex="1">
          <mxGeometry width="520" height="40" as="geometry" />
        </mxCell>
        <mxCell id="1n2LrM6pAfByoy7Aodjy-2" value="代理服务" style="text;html=1;resizable=0;points=[];autosize=1;align=left;verticalAlign=top;spacingTop=-4;" parent="1n2LrM6pAfByoy7Aodjy-0" vertex="1">
          <mxGeometry width="60" height="20" as="geometry" />
        </mxCell>
        <mxCell id="TwIbi9MzcWZOTdJuihYT-2" value="3. 记录日志" style="edgeStyle=orthogonalEdgeStyle;rounded=1;orthogonalLoop=1;jettySize=auto;html=1;strokeWidth=1;fontSize=14;" parent="HXngfqCA3_Blp8MBTVv8-1" source="OOWsQ4Qar-EQYclcgSQu-0" target="TwIbi9MzcWZOTdJuihYT-0" edge="1">
          <mxGeometry relative="1" as="geometry">
            <Array as="points">
              <mxPoint x="260" y="410" />
              <mxPoint x="160" y="410" />
            </Array>
          </mxGeometry>
        </mxCell>
        <mxCell id="TwIbi9MzcWZOTdJuihYT-3" value="4. 生成会话及权限信息" style="edgeStyle=orthogonalEdgeStyle;rounded=1;orthogonalLoop=1;jettySize=auto;html=1;strokeWidth=1;fontSize=14;" parent="HXngfqCA3_Blp8MBTVv8-1" source="OOWsQ4Qar-EQYclcgSQu-0" target="TwIbi9MzcWZOTdJuihYT-1" edge="1">
          <mxGeometry relative="1" as="geometry" />
        </mxCell>
        <mxCell id="TwIbi9MzcWZOTdJuihYT-4" value="5. 跳转新标签页" style="edgeStyle=orthogonalEdgeStyle;rounded=1;orthogonalLoop=1;jettySize=auto;html=1;entryX=0.5;entryY=1;entryDx=0;entryDy=0;strokeWidth=1;fontSize=14;" parent="HXngfqCA3_Blp8MBTVv8-1" source="OOWsQ4Qar-EQYclcgSQu-0" target="1n2LrM6pAfByoy7Aodjy-1" edge="1">
          <mxGeometry relative="1" as="geometry">
            <Array as="points">
              <mxPoint x="420" y="360" />
            </Array>
          </mxGeometry>
        </mxCell>
        <mxCell id="OOWsQ4Qar-EQYclcgSQu-0" value="pas-psm-web-portal" style="rounded=1;whiteSpace=wrap;html=1;fillColor=#f8cecc;strokeColor=#b85450;" parent="HXngfqCA3_Blp8MBTVv8-1" vertex="1">
          <mxGeometry x="200" y="330" width="120" height="60" as="geometry" />
        </mxCell>
        <mxCell id="OOWsQ4Qar-EQYclcgSQu-1" style="edgeStyle=orthogonalEdgeStyle;rounded=1;orthogonalLoop=1;jettySize=auto;html=1;strokeWidth=1;fontSize=14;exitX=0.25;exitY=1;exitDx=0;exitDy=0;" parent="HXngfqCA3_Blp8MBTVv8-1" source="1n2LrM6pAfByoy7Aodjy-1" target="OOWsQ4Qar-EQYclcgSQu-0" edge="1">
          <mxGeometry relative="1" as="geometry" />
        </mxCell>
        <mxCell id="OOWsQ4Qar-EQYclcgSQu-2" value="2. 完成登录" style="text;html=1;resizable=0;points=[];align=center;verticalAlign=middle;labelBackgroundColor=#ffffff;fontSize=14;" parent="OOWsQ4Qar-EQYclcgSQu-1" vertex="1" connectable="0">
          <mxGeometry x="0.0417" relative="1" as="geometry">
            <mxPoint as="offset" />
          </mxGeometry>
        </mxCell>
        <mxCell id="TwIbi9MzcWZOTdJuihYT-0" value="MySQL" style="shape=cylinder;whiteSpace=wrap;html=1;boundedLbl=1;backgroundOutline=1;fillColor=#bac8d3;strokeColor=#23445d;" parent="HXngfqCA3_Blp8MBTVv8-1" vertex="1">
          <mxGeometry x="131.19230769230768" y="480" width="57.69230769230769" height="80" as="geometry" />
        </mxCell>
        <mxCell id="TwIbi9MzcWZOTdJuihYT-1" value="Redis" style="shape=cylinder;whiteSpace=wrap;html=1;boundedLbl=1;backgroundOutline=1;fillColor=#bac8d3;strokeColor=#23445d;" parent="HXngfqCA3_Blp8MBTVv8-1" vertex="1">
          <mxGeometry x="309.9230769230769" y="490" width="57.69230769230769" height="80" as="geometry" />
        </mxCell>
        <mxCell id="TwIbi9MzcWZOTdJuihYT-5" value="6. 跳转新标签页" style="edgeStyle=orthogonalEdgeStyle;rounded=1;orthogonalLoop=1;jettySize=auto;html=1;entryX=0;entryY=0.5;entryDx=0;entryDy=0;strokeWidth=1;fontSize=14;" parent="HXngfqCA3_Blp8MBTVv8-1" source="1n2LrM6pAfByoy7Aodjy-1" target="KNSno5Ze39uRXBVzfoKS-0" edge="1">
          <mxGeometry relative="1" as="geometry" />
        </mxCell>
        <mxCell id="epqjO6KYCCvND1SbyexE-2" value="9. 校验用户权限" style="edgeStyle=orthogonalEdgeStyle;rounded=1;orthogonalLoop=1;jettySize=auto;html=1;entryX=1;entryY=0.5;entryDx=0;entryDy=0;strokeWidth=1;fontSize=14;" parent="HXngfqCA3_Blp8MBTVv8-1" source="epqjO6KYCCvND1SbyexE-0" target="TwIbi9MzcWZOTdJuihYT-1" edge="1">
          <mxGeometry relative="1" as="geometry" />
        </mxCell>
        <mxCell id="epqjO6KYCCvND1SbyexE-4" value="10. 建立代理会话" style="edgeStyle=orthogonalEdgeStyle;rounded=1;orthogonalLoop=1;jettySize=auto;html=1;strokeWidth=1;fontSize=14;" parent="HXngfqCA3_Blp8MBTVv8-1" source="epqjO6KYCCvND1SbyexE-0" target="AAivL0sZjUx0o3dALm6q-0" edge="1">
          <mxGeometry relative="1" as="geometry">
            <mxPoint x="600" y="500" as="targetPoint" />
          </mxGeometry>
        </mxCell>
        <mxCell id="epqjO6KYCCvND1SbyexE-0" value="pas-psm-proxy" style="rounded=1;whiteSpace=wrap;html=1;fillColor=#f8cecc;strokeColor=#b85450;" parent="HXngfqCA3_Blp8MBTVv8-1" vertex="1">
          <mxGeometry x="540" y="360" width="120" height="60" as="geometry" />
        </mxCell>
        <mxCell id="epqjO6KYCCvND1SbyexE-1" value="8. 建立运维会话" style="edgeStyle=orthogonalEdgeStyle;rounded=1;orthogonalLoop=1;jettySize=auto;html=1;exitX=0.75;exitY=1;exitDx=0;exitDy=0;strokeWidth=1;fontSize=14;" parent="HXngfqCA3_Blp8MBTVv8-1" source="1n2LrM6pAfByoy7Aodjy-1" target="epqjO6KYCCvND1SbyexE-0" edge="1">
          <mxGeometry relative="1" as="geometry" />
        </mxCell>
        <mxCell id="AAivL0sZjUx0o3dALm6q-3" value="11. 建立代理会话" style="edgeStyle=orthogonalEdgeStyle;rounded=1;orthogonalLoop=1;jettySize=auto;html=1;strokeWidth=1;fontSize=14;" parent="HXngfqCA3_Blp8MBTVv8-1" source="AAivL0sZjUx0o3dALm6q-0" target="AAivL0sZjUx0o3dALm6q-2" edge="1">
          <mxGeometry relative="1" as="geometry" />
        </mxCell>
        <mxCell id="AAivL0sZjUx0o3dALm6q-0" value="pas-psm-guacd" style="rounded=1;whiteSpace=wrap;html=1;fillColor=#d5e8d4;strokeColor=#82b366;" parent="HXngfqCA3_Blp8MBTVv8-1" vertex="1">
          <mxGeometry x="540" y="524" width="120" height="60" as="geometry" />
        </mxCell>
        <mxCell id="AAivL0sZjUx0o3dALm6q-2" value="用户资源" style="rounded=1;whiteSpace=wrap;html=1;fillColor=#ffe6cc;strokeColor=#d79b00;" parent="HXngfqCA3_Blp8MBTVv8-1" vertex="1">
          <mxGeometry x="540" y="660" width="120" height="60" as="geometry" />
        </mxCell>
      </root>
    </mxGraphModel>
  </diagram>
  <diagram id="KlW-hNGWg_5i1i43bPQP" name="运维审计">
    <mxGraphModel dx="1186" dy="715" grid="1" gridSize="10" guides="1" tooltips="1" connect="1" arrows="1" fold="1" page="1" pageScale="1" pageWidth="827" pageHeight="1169" math="0" shadow="0">
      <root>
        <mxCell id="SsdUvKmOlCh2QUZWnrQW-0" />
        <mxCell id="SsdUvKmOlCh2QUZWnrQW-1" parent="SsdUvKmOlCh2QUZWnrQW-0" />
        <mxCell id="iAT1zknYOufjoNTpixPQ-0" style="edgeStyle=orthogonalEdgeStyle;rounded=1;orthogonalLoop=1;jettySize=auto;html=1;entryX=0.25;entryY=0;entryDx=0;entryDy=0;strokeWidth=1;fontSize=14;" parent="SsdUvKmOlCh2QUZWnrQW-1" source="iAT1zknYOufjoNTpixPQ-2" edge="1">
          <mxGeometry relative="1" as="geometry" />
        </mxCell>
        <mxCell id="iAT1zknYOufjoNTpixPQ-1" value="1. 访问堡垒机管理系统，建立登录会话" style="text;html=1;resizable=0;points=[];align=center;verticalAlign=middle;labelBackgroundColor=#ffffff;fontSize=14;" parent="iAT1zknYOufjoNTpixPQ-0" vertex="1" connectable="0">
          <mxGeometry x="-0.0222" y="1" relative="1" as="geometry">
            <mxPoint as="offset" />
          </mxGeometry>
        </mxCell>
        <mxCell id="iAT1zknYOufjoNTpixPQ-2" value="pas-psm-ui-portal&lt;br&gt;管理界面 80 &amp;amp; 443" style="rounded=1;whiteSpace=wrap;html=1;fillColor=#fff2cc;strokeColor=#d6b656;" parent="SsdUvKmOlCh2QUZWnrQW-1" vertex="1">
          <mxGeometry x="189" y="70" width="120" height="60" as="geometry" />
        </mxCell>
        <mxCell id="iAT1zknYOufjoNTpixPQ-3" value="7. 建立运维会话" style="edgeStyle=orthogonalEdgeStyle;rounded=1;orthogonalLoop=1;jettySize=auto;html=1;entryX=0.75;entryY=0;entryDx=0;entryDy=0;strokeWidth=1;fontSize=14;" parent="SsdUvKmOlCh2QUZWnrQW-1" source="iAT1zknYOufjoNTpixPQ-4" edge="1">
          <mxGeometry relative="1" as="geometry" />
        </mxCell>
        <mxCell id="iAT1zknYOufjoNTpixPQ-24" value="1. 执行操作" style="edgeStyle=orthogonalEdgeStyle;rounded=0;orthogonalLoop=1;jettySize=auto;html=1;entryX=0.75;entryY=0;entryDx=0;entryDy=0;" parent="SsdUvKmOlCh2QUZWnrQW-1" source="iAT1zknYOufjoNTpixPQ-4" target="iAT1zknYOufjoNTpixPQ-6" edge="1">
          <mxGeometry relative="1" as="geometry" />
        </mxCell>
        <mxCell id="iAT1zknYOufjoNTpixPQ-4" value="pas-psm-ui-portal&lt;br&gt;H5登录 80&amp;amp;443" style="rounded=1;whiteSpace=wrap;html=1;fillColor=#fff2cc;strokeColor=#d6b656;" parent="SsdUvKmOlCh2QUZWnrQW-1" vertex="1">
          <mxGeometry x="500" y="70" width="120" height="60" as="geometry" />
        </mxCell>
        <mxCell id="iAT1zknYOufjoNTpixPQ-5" value="" style="group" parent="SsdUvKmOlCh2QUZWnrQW-1" vertex="1" connectable="0">
          <mxGeometry x="160" y="200" width="520" height="40" as="geometry" />
        </mxCell>
        <mxCell id="iAT1zknYOufjoNTpixPQ-6" value="Nginx" style="rounded=1;whiteSpace=wrap;html=1;fillColor=#dae8fc;strokeColor=#6c8ebf;" parent="iAT1zknYOufjoNTpixPQ-5" vertex="1">
          <mxGeometry width="520" height="40" as="geometry" />
        </mxCell>
        <mxCell id="iAT1zknYOufjoNTpixPQ-7" value="代理服务" style="text;html=1;resizable=0;points=[];autosize=1;align=left;verticalAlign=top;spacingTop=-4;" parent="iAT1zknYOufjoNTpixPQ-5" vertex="1">
          <mxGeometry width="60" height="20" as="geometry" />
        </mxCell>
        <mxCell id="iAT1zknYOufjoNTpixPQ-10" value="5. 跳转新标签页" style="edgeStyle=orthogonalEdgeStyle;rounded=1;orthogonalLoop=1;jettySize=auto;html=1;entryX=0.5;entryY=1;entryDx=0;entryDy=0;strokeWidth=1;fontSize=14;" parent="SsdUvKmOlCh2QUZWnrQW-1" source="iAT1zknYOufjoNTpixPQ-11" edge="1">
          <mxGeometry relative="1" as="geometry">
            <Array as="points">
              <mxPoint x="420" y="360" />
            </Array>
          </mxGeometry>
        </mxCell>
        <mxCell id="iAT1zknYOufjoNTpixPQ-30" value="11. 查询操作记录" style="edgeStyle=orthogonalEdgeStyle;rounded=0;orthogonalLoop=1;jettySize=auto;html=1;" parent="SsdUvKmOlCh2QUZWnrQW-1" source="iAT1zknYOufjoNTpixPQ-11" target="iAT1zknYOufjoNTpixPQ-14" edge="1">
          <mxGeometry relative="1" as="geometry" />
        </mxCell>
        <mxCell id="iAT1zknYOufjoNTpixPQ-33" value="9. 查看操作记录" style="edgeStyle=orthogonalEdgeStyle;rounded=0;orthogonalLoop=1;jettySize=auto;html=1;entryX=0.25;entryY=0;entryDx=0;entryDy=0;" parent="SsdUvKmOlCh2QUZWnrQW-1" source="iAT1zknYOufjoNTpixPQ-2" target="iAT1zknYOufjoNTpixPQ-6" edge="1">
          <mxGeometry x="-0.6842" relative="1" as="geometry">
            <mxPoint as="offset" />
          </mxGeometry>
        </mxCell>
        <mxCell id="iAT1zknYOufjoNTpixPQ-35" value="5. 持久化操作记录" style="edgeStyle=orthogonalEdgeStyle;rounded=0;orthogonalLoop=1;jettySize=auto;html=1;" parent="SsdUvKmOlCh2QUZWnrQW-1" source="iAT1zknYOufjoNTpixPQ-11" target="iAT1zknYOufjoNTpixPQ-14" edge="1">
          <mxGeometry relative="1" as="geometry">
            <Array as="points">
              <mxPoint x="260" y="520" />
            </Array>
          </mxGeometry>
        </mxCell>
        <mxCell id="iAT1zknYOufjoNTpixPQ-11" value="pas-psm-web-portal" style="rounded=1;whiteSpace=wrap;html=1;fillColor=#f8cecc;strokeColor=#b85450;" parent="SsdUvKmOlCh2QUZWnrQW-1" vertex="1">
          <mxGeometry x="200" y="330" width="120" height="60" as="geometry" />
        </mxCell>
        <mxCell id="iAT1zknYOufjoNTpixPQ-12" style="edgeStyle=orthogonalEdgeStyle;rounded=1;orthogonalLoop=1;jettySize=auto;html=1;strokeWidth=1;fontSize=14;exitX=0.25;exitY=1;exitDx=0;exitDy=0;" parent="SsdUvKmOlCh2QUZWnrQW-1" target="iAT1zknYOufjoNTpixPQ-11" edge="1">
          <mxGeometry relative="1" as="geometry" />
        </mxCell>
        <mxCell id="iAT1zknYOufjoNTpixPQ-13" value="2. 完成登录" style="text;html=1;resizable=0;points=[];align=center;verticalAlign=middle;labelBackgroundColor=#ffffff;fontSize=14;" parent="iAT1zknYOufjoNTpixPQ-12" vertex="1" connectable="0">
          <mxGeometry x="0.0417" relative="1" as="geometry">
            <mxPoint as="offset" />
          </mxGeometry>
        </mxCell>
        <mxCell id="iAT1zknYOufjoNTpixPQ-14" value="MySQL" style="shape=cylinder;whiteSpace=wrap;html=1;boundedLbl=1;backgroundOutline=1;fillColor=#bac8d3;strokeColor=#23445d;" parent="SsdUvKmOlCh2QUZWnrQW-1" vertex="1">
          <mxGeometry x="131.19230769230768" y="480" width="57.69230769230769" height="80" as="geometry" />
        </mxCell>
        <mxCell id="iAT1zknYOufjoNTpixPQ-29" value="4. 记录操作记录" style="edgeStyle=orthogonalEdgeStyle;rounded=0;orthogonalLoop=1;jettySize=auto;html=1;" parent="SsdUvKmOlCh2QUZWnrQW-1" source="iAT1zknYOufjoNTpixPQ-15" target="iAT1zknYOufjoNTpixPQ-11" edge="1">
          <mxGeometry relative="1" as="geometry">
            <Array as="points">
              <mxPoint x="370" y="514" />
              <mxPoint x="370" y="370" />
            </Array>
          </mxGeometry>
        </mxCell>
        <mxCell id="iAT1zknYOufjoNTpixPQ-15" value="Redis" style="shape=cylinder;whiteSpace=wrap;html=1;boundedLbl=1;backgroundOutline=1;fillColor=#bac8d3;strokeColor=#23445d;" parent="SsdUvKmOlCh2QUZWnrQW-1" vertex="1">
          <mxGeometry x="409.9230769230769" y="474" width="57.69230769230769" height="80" as="geometry" />
        </mxCell>
        <mxCell id="iAT1zknYOufjoNTpixPQ-16" value="6. 跳转新标签页" style="edgeStyle=orthogonalEdgeStyle;rounded=1;orthogonalLoop=1;jettySize=auto;html=1;entryX=0;entryY=0.5;entryDx=0;entryDy=0;strokeWidth=1;fontSize=14;" parent="SsdUvKmOlCh2QUZWnrQW-1" target="iAT1zknYOufjoNTpixPQ-4" edge="1">
          <mxGeometry relative="1" as="geometry" />
        </mxCell>
        <mxCell id="iAT1zknYOufjoNTpixPQ-27" value="3. 审计操作并记录操作日志&amp;nbsp;" style="edgeStyle=orthogonalEdgeStyle;rounded=0;orthogonalLoop=1;jettySize=auto;html=1;entryX=1;entryY=0.5;entryDx=0;entryDy=0;" parent="SsdUvKmOlCh2QUZWnrQW-1" source="iAT1zknYOufjoNTpixPQ-19" target="iAT1zknYOufjoNTpixPQ-15" edge="1">
          <mxGeometry relative="1" as="geometry" />
        </mxCell>
        <mxCell id="iAT1zknYOufjoNTpixPQ-31" value="6. 执行运维操作" style="edgeStyle=orthogonalEdgeStyle;rounded=0;orthogonalLoop=1;jettySize=auto;html=1;" parent="SsdUvKmOlCh2QUZWnrQW-1" source="iAT1zknYOufjoNTpixPQ-19" target="iAT1zknYOufjoNTpixPQ-22" edge="1">
          <mxGeometry relative="1" as="geometry" />
        </mxCell>
        <mxCell id="iAT1zknYOufjoNTpixPQ-19" value="pas-psm-proxy" style="rounded=1;whiteSpace=wrap;html=1;fillColor=#f8cecc;strokeColor=#b85450;" parent="SsdUvKmOlCh2QUZWnrQW-1" vertex="1">
          <mxGeometry x="540" y="360" width="120" height="60" as="geometry" />
        </mxCell>
        <mxCell id="iAT1zknYOufjoNTpixPQ-20" value="8. 建立运维会话" style="edgeStyle=orthogonalEdgeStyle;rounded=1;orthogonalLoop=1;jettySize=auto;html=1;exitX=0.75;exitY=1;exitDx=0;exitDy=0;strokeWidth=1;fontSize=14;" parent="SsdUvKmOlCh2QUZWnrQW-1" target="iAT1zknYOufjoNTpixPQ-19" edge="1">
          <mxGeometry relative="1" as="geometry" />
        </mxCell>
        <mxCell id="iAT1zknYOufjoNTpixPQ-32" value="7. 执行运维操作" style="edgeStyle=orthogonalEdgeStyle;rounded=0;orthogonalLoop=1;jettySize=auto;html=1;" parent="SsdUvKmOlCh2QUZWnrQW-1" source="iAT1zknYOufjoNTpixPQ-22" target="iAT1zknYOufjoNTpixPQ-23" edge="1">
          <mxGeometry relative="1" as="geometry" />
        </mxCell>
        <mxCell id="iAT1zknYOufjoNTpixPQ-22" value="pas-psm-guacd" style="rounded=1;whiteSpace=wrap;html=1;fillColor=#d5e8d4;strokeColor=#82b366;" parent="SsdUvKmOlCh2QUZWnrQW-1" vertex="1">
          <mxGeometry x="540" y="524" width="120" height="60" as="geometry" />
        </mxCell>
        <mxCell id="iAT1zknYOufjoNTpixPQ-23" value="用户资源" style="rounded=1;whiteSpace=wrap;html=1;fillColor=#ffe6cc;strokeColor=#d79b00;" parent="SsdUvKmOlCh2QUZWnrQW-1" vertex="1">
          <mxGeometry x="540" y="660" width="120" height="60" as="geometry" />
        </mxCell>
        <mxCell id="iAT1zknYOufjoNTpixPQ-26" value="2. 代理操作" style="edgeStyle=orthogonalEdgeStyle;rounded=0;orthogonalLoop=1;jettySize=auto;html=1;exitX=0.75;exitY=1;exitDx=0;exitDy=0;" parent="SsdUvKmOlCh2QUZWnrQW-1" source="iAT1zknYOufjoNTpixPQ-6" target="iAT1zknYOufjoNTpixPQ-19" edge="1">
          <mxGeometry relative="1" as="geometry" />
        </mxCell>
        <mxCell id="iAT1zknYOufjoNTpixPQ-34" value="10. 查看操作记录" style="edgeStyle=orthogonalEdgeStyle;rounded=0;orthogonalLoop=1;jettySize=auto;html=1;exitX=0.25;exitY=1;exitDx=0;exitDy=0;" parent="SsdUvKmOlCh2QUZWnrQW-1" source="iAT1zknYOufjoNTpixPQ-6" target="iAT1zknYOufjoNTpixPQ-11" edge="1">
          <mxGeometry relative="1" as="geometry" />
        </mxCell>
      </root>
    </mxGraphModel>
  </diagram>
  <diagram id="a3IzeCr_NsRIOKTuCwCL" name="自动运维">
    <mxGraphModel dx="1186" dy="715" grid="1" gridSize="10" guides="1" tooltips="1" connect="1" arrows="1" fold="1" page="1" pageScale="1" pageWidth="827" pageHeight="1169" math="0" shadow="0">
      <root>
        <mxCell id="9sA1hvRpIONQ4-0Zxmx2-0" />
        <mxCell id="9sA1hvRpIONQ4-0Zxmx2-1" parent="9sA1hvRpIONQ4-0Zxmx2-0" />
        <mxCell id="NwmJ82MF-fI7O7G0A4vv-0" value="pas-psm-ui-portal&lt;br&gt;管理界面 80 &amp;amp; 443" style="rounded=1;whiteSpace=wrap;html=1;fillColor=#fff2cc;strokeColor=#d6b656;" parent="9sA1hvRpIONQ4-0Zxmx2-1" vertex="1">
          <mxGeometry x="350" y="120" width="120" height="60" as="geometry" />
        </mxCell>
        <mxCell id="NwmJ82MF-fI7O7G0A4vv-3" value="" style="group" parent="9sA1hvRpIONQ4-0Zxmx2-1" vertex="1" connectable="0">
          <mxGeometry x="140" y="240" width="540" height="40" as="geometry" />
        </mxCell>
        <mxCell id="NwmJ82MF-fI7O7G0A4vv-4" value="Nginx" style="rounded=1;whiteSpace=wrap;html=1;fillColor=#dae8fc;strokeColor=#6c8ebf;" parent="NwmJ82MF-fI7O7G0A4vv-3" vertex="1">
          <mxGeometry width="540" height="40" as="geometry" />
        </mxCell>
        <mxCell id="NwmJ82MF-fI7O7G0A4vv-5" value="代理服务" style="text;html=1;resizable=0;points=[];autosize=1;align=left;verticalAlign=top;spacingTop=-4;" parent="NwmJ82MF-fI7O7G0A4vv-3" vertex="1">
          <mxGeometry width="60" height="20" as="geometry" />
        </mxCell>
        <mxCell id="NwmJ82MF-fI7O7G0A4vv-7" value="1. 创建运维任务" style="edgeStyle=orthogonalEdgeStyle;rounded=0;orthogonalLoop=1;jettySize=auto;html=1;" parent="9sA1hvRpIONQ4-0Zxmx2-1" source="NwmJ82MF-fI7O7G0A4vv-0" target="NwmJ82MF-fI7O7G0A4vv-4" edge="1">
          <mxGeometry relative="1" as="geometry">
            <mxPoint as="offset" />
          </mxGeometry>
        </mxCell>
        <mxCell id="NwmJ82MF-fI7O7G0A4vv-8" value="3. 持久化运维任务" style="edgeStyle=orthogonalEdgeStyle;rounded=0;orthogonalLoop=1;jettySize=auto;html=1;" parent="9sA1hvRpIONQ4-0Zxmx2-1" source="NwmJ82MF-fI7O7G0A4vv-9" target="NwmJ82MF-fI7O7G0A4vv-10" edge="1">
          <mxGeometry relative="1" as="geometry">
            <mxPoint x="-10" y="570" as="targetPoint" />
          </mxGeometry>
        </mxCell>
        <mxCell id="NaiH3F-JvCF2AlwoR1GG-1" value="4. 发起任务" style="edgeStyle=orthogonalEdgeStyle;rounded=0;orthogonalLoop=1;jettySize=auto;html=1;" parent="9sA1hvRpIONQ4-0Zxmx2-1" source="NwmJ82MF-fI7O7G0A4vv-9" target="NaiH3F-JvCF2AlwoR1GG-0" edge="1">
          <mxGeometry relative="1" as="geometry" />
        </mxCell>
        <mxCell id="NwmJ82MF-fI7O7G0A4vv-9" value="pas-psm-web-portal" style="rounded=1;whiteSpace=wrap;html=1;fillColor=#f8cecc;strokeColor=#b85450;" parent="9sA1hvRpIONQ4-0Zxmx2-1" vertex="1">
          <mxGeometry x="140" y="360" width="120" height="60" as="geometry" />
        </mxCell>
        <mxCell id="NwmJ82MF-fI7O7G0A4vv-10" value="MySQL" style="shape=cylinder;whiteSpace=wrap;html=1;boundedLbl=1;backgroundOutline=1;fillColor=#bac8d3;strokeColor=#23445d;" parent="9sA1hvRpIONQ4-0Zxmx2-1" vertex="1">
          <mxGeometry x="171.19230769230768" y="530" width="57.69230769230769" height="80" as="geometry" />
        </mxCell>
        <mxCell id="NwmJ82MF-fI7O7G0A4vv-20" value="2. 创建运维任务" style="edgeStyle=orthogonalEdgeStyle;rounded=0;orthogonalLoop=1;jettySize=auto;html=1;" parent="9sA1hvRpIONQ4-0Zxmx2-1" source="NwmJ82MF-fI7O7G0A4vv-4" target="NwmJ82MF-fI7O7G0A4vv-9" edge="1">
          <mxGeometry relative="1" as="geometry" />
        </mxCell>
        <mxCell id="NaiH3F-JvCF2AlwoR1GG-2" value="5. 查询任务详情" style="edgeStyle=orthogonalEdgeStyle;rounded=0;orthogonalLoop=1;jettySize=auto;html=1;" parent="9sA1hvRpIONQ4-0Zxmx2-1" source="NaiH3F-JvCF2AlwoR1GG-0" target="NwmJ82MF-fI7O7G0A4vv-10" edge="1">
          <mxGeometry relative="1" as="geometry">
            <Array as="points">
              <mxPoint x="390" y="500" />
              <mxPoint x="200" y="500" />
            </Array>
          </mxGeometry>
        </mxCell>
        <mxCell id="OmuGQdJdix5EZYxGF0aO-1" value="6. 调用运维组件" style="edgeStyle=orthogonalEdgeStyle;rounded=0;orthogonalLoop=1;jettySize=auto;html=1;" parent="9sA1hvRpIONQ4-0Zxmx2-1" source="NaiH3F-JvCF2AlwoR1GG-0" target="OmuGQdJdix5EZYxGF0aO-0" edge="1">
          <mxGeometry relative="1" as="geometry" />
        </mxCell>
        <mxCell id="30RF1xXZBKbSv5xFg2vs-2" value="10. 持久化运维结果" style="edgeStyle=orthogonalEdgeStyle;rounded=0;orthogonalLoop=1;jettySize=auto;html=1;entryX=1;entryY=0.5;entryDx=0;entryDy=0;" parent="9sA1hvRpIONQ4-0Zxmx2-1" source="NaiH3F-JvCF2AlwoR1GG-0" target="NwmJ82MF-fI7O7G0A4vv-10" edge="1">
          <mxGeometry relative="1" as="geometry">
            <Array as="points">
              <mxPoint x="390" y="570" />
            </Array>
          </mxGeometry>
        </mxCell>
        <mxCell id="NaiH3F-JvCF2AlwoR1GG-0" value="&lt;font style=&quot;font-size: 12px&quot;&gt;pas-psm-task&lt;/font&gt;" style="rounded=1;whiteSpace=wrap;html=1;fontSize=14;fillColor=#f8cecc;strokeColor=#b85450;" parent="9sA1hvRpIONQ4-0Zxmx2-1" vertex="1">
          <mxGeometry x="330" y="360" width="120" height="60" as="geometry" />
        </mxCell>
        <mxCell id="vVbycsShPIavIkzvtFY0-1" value="" style="edgeStyle=orthogonalEdgeStyle;rounded=0;orthogonalLoop=1;jettySize=auto;html=1;" parent="9sA1hvRpIONQ4-0Zxmx2-1" source="OmuGQdJdix5EZYxGF0aO-0" target="vVbycsShPIavIkzvtFY0-0" edge="1">
          <mxGeometry relative="1" as="geometry" />
        </mxCell>
        <mxCell id="vVbycsShPIavIkzvtFY0-2" value="7. 发送请求" style="text;html=1;resizable=0;points=[];align=center;verticalAlign=middle;labelBackgroundColor=#ffffff;" parent="vVbycsShPIavIkzvtFY0-1" vertex="1" connectable="0">
          <mxGeometry x="-0.0299" relative="1" as="geometry">
            <mxPoint as="offset" />
          </mxGeometry>
        </mxCell>
        <mxCell id="OmuGQdJdix5EZYxGF0aO-0" value="pas-grpc-api" style="rounded=1;whiteSpace=wrap;html=1;fillColor=#e1d5e7;strokeColor=#9673a6;" parent="9sA1hvRpIONQ4-0Zxmx2-1" vertex="1">
          <mxGeometry x="540" y="378.9655172413793" width="120" height="22.068965517241377" as="geometry" />
        </mxCell>
        <mxCell id="vVbycsShPIavIkzvtFY0-4" value="8. 执行运维命令" style="edgeStyle=orthogonalEdgeStyle;rounded=0;orthogonalLoop=1;jettySize=auto;html=1;" parent="9sA1hvRpIONQ4-0Zxmx2-1" source="vVbycsShPIavIkzvtFY0-0" target="30RF1xXZBKbSv5xFg2vs-0" edge="1">
          <mxGeometry relative="1" as="geometry">
            <mxPoint x="430" y="690" as="targetPoint" />
          </mxGeometry>
        </mxCell>
        <mxCell id="30RF1xXZBKbSv5xFg2vs-1" value="9. 返回执行结果" style="edgeStyle=orthogonalEdgeStyle;rounded=0;orthogonalLoop=1;jettySize=auto;html=1;entryX=0.75;entryY=1;entryDx=0;entryDy=0;" parent="9sA1hvRpIONQ4-0Zxmx2-1" source="vVbycsShPIavIkzvtFY0-0" target="NaiH3F-JvCF2AlwoR1GG-0" edge="1">
          <mxGeometry x="-0.25" relative="1" as="geometry">
            <mxPoint as="offset" />
          </mxGeometry>
        </mxCell>
        <mxCell id="vVbycsShPIavIkzvtFY0-0" value="pas-psm-script" style="rounded=1;whiteSpace=wrap;html=1;fillColor=#d5e8d4;strokeColor=#82b366;" parent="9sA1hvRpIONQ4-0Zxmx2-1" vertex="1">
          <mxGeometry x="540" y="450" width="120" height="60" as="geometry" />
        </mxCell>
        <mxCell id="30RF1xXZBKbSv5xFg2vs-0" value="用户资源" style="rounded=1;whiteSpace=wrap;html=1;fillColor=#ffe6cc;strokeColor=#d79b00;" parent="9sA1hvRpIONQ4-0Zxmx2-1" vertex="1">
          <mxGeometry x="540" y="559" width="120" height="60" as="geometry" />
        </mxCell>
      </root>
    </mxGraphModel>
  </diagram>
</mxfile>
